REM DIRINDEX 1\2,1\3,1\4
REM DIRNAME cjc112,folder01,folder02,folder03
TITLE ""
FILE "Track87.mp3" MP3
  TRACK 01 AUDIO
    TITLE "2:cjc112_391"
    INDEX 01 00:00:00
  TRACK 02 AUDIO
    TITLE "0:"
    INDEX 01 00:01:56
  TRACK 03 AUDIO
    TITLE "3:cjc112_392"
    INDEX 01 00:02:24
  TRACK 04 AUDIO
    TITLE "0:"
    INDEX 01 00:06:59
  TRACK 05 AUDIO
    TITLE "4:cjc112_393"
    INDEX 01 00:12:26
  TRACK 06 AUDIO
    TITLE "0:"
    INDEX 01 00:16:59
